<?xml version="1.0" standalone="no"?><!DOCTYPE svg PUBLIC "-//W3C//DTD SVG 1.1//EN" "http://www.w3.org/Graphics/SVG/1.1/DTD/svg11.dtd"><svg t="1714116667767" class="icon" viewBox="0 0 1024 1024" version="1.1" xmlns="http://www.w3.org/2000/svg" p-id="14438" xmlns:xlink="http://www.w3.org/1999/xlink" width="200" height="200"><path d="M518.53617 840.987234l8.714894-10.893617c13.07234-15.251064 300.66383-359.489362 300.66383-516.357447v-21.787234C827.914894 130.723404 688.476596 0 516.357447 0S204.8 130.723404 204.8 291.948936v21.787234c0 156.868085 291.948936 501.106383 305.021277 516.357447l8.714893 10.893617z m-108.93617-518.53617c2.178723-56.646809 50.110638-102.4 106.757447-100.221277h2.178723c56.646809-2.178723 106.757447 41.395745 108.93617 98.042553v2.178724c-2.178723 58.825532-50.110638 104.578723-108.93617 102.4-58.825532 0-106.757447-45.753191-108.93617-102.4z m503.285106 464.068085c0 132.902128-176.476596 237.480851-400.885106 237.480851S111.114894 919.421277 111.114894 786.519149c0-65.361702 41.395745-124.187234 117.651063-169.940426 15.251064-8.714894 34.859574-2.178723 43.574469 15.251064 6.53617 15.251064 2.178723 32.680851-10.893617 41.395745C206.978723 703.72766 176.476596 745.123404 176.476596 786.519149c0 93.685106 154.689362 172.119149 335.523404 172.119149s335.523404-78.434043 335.523404-172.119149c0-43.574468-32.680851-84.970213-91.506383-117.651064-15.251064-8.714894-21.787234-28.323404-13.07234-43.574468s28.323404-21.787234 43.574468-13.07234c82.791489 43.574468 126.365957 106.757447 126.365957 174.297872z" fill="#1296db" p-id="14439"></path></svg>