<?xml version="1.0" standalone="no"?><!DOCTYPE svg PUBLIC "-//W3C//DTD SVG 1.1//EN" "http://www.w3.org/Graphics/SVG/1.1/DTD/svg11.dtd"><svg t="1715594085582" class="icon" viewBox="0 0 1024 1024" version="1.1" xmlns="http://www.w3.org/2000/svg" p-id="11345" xmlns:xlink="http://www.w3.org/1999/xlink" width="200" height="200"><path d="M853.333333 673.365333c-136.533333-89.6-179.2-115.2-238.933333-123.733333 4.266667 17.066667 4.266667 34.133333 4.266667 51.2 0 72.533333-38.4 132.266667-85.333334 149.333333v-93.866666h-59.733333v89.6c-42.666667-21.333333-72.533333-76.8-72.533333-145.066667 0-17.066667 0-34.133333 4.266666-51.2-55.466667 8.533333-106.666667 38.4-247.466666 128-46.933333 29.866667-76.8 187.733333-76.8 226.133333 0 106.666667 192 76.8 426.666666 76.8s426.666667 29.866667 426.666667-76.8c4.266667-42.666667-25.6-200.533333-81.066667-230.4z" fill="#4254FF" p-id="11346"></path><path d="M473.6 580.266667l34.133333 59.733333 29.866667-59.733333-29.866667-29.866667z" fill="#4254FF" p-id="11347"></path><path d="M470.656 123.733333c4.266667 0 8.533333-4.266667 8.533333-12.8v-4.266666c8.533333-4.266667 29.866667-8.533333 29.866667-8.533334s29.866667 8.533333 38.4 12.8v4.266667c0 4.266667 4.266667 8.533333 8.533333 12.8V162.133333c4.266667 29.866667-42.666667 51.2-42.666666 51.2s-46.933333-21.333333-46.933334-51.2c0-12.8 0-21.333333 4.266667-38.4 0 4.266667 0 4.266667 0 0zM389.589333 273.066667h238.933334v-25.6H389.589333v25.6zM317.056 256c-8.533333 25.6-12.8 46.933333-12.8 72.533333 0 110.933333 89.6 204.8 204.8 204.8 110.933333 0 204.8-89.6 204.8-204.8 0-25.6-4.266667-51.2-12.8-72.533333 38.4-21.333333 64-51.2 64-85.333333 0-68.266667-115.2-128-256-128s-256 55.466667-256 128c0 34.133333 25.6 64 64 85.333333z" fill="#FFA232" p-id="11348"></path><path d="M500.522667 174.933333l12.8-4.266666 12.8 4.266666-4.266667-12.8 8.533333-8.533333h-12.8l-4.266666-12.8-4.266667 12.8h-12.8l8.533333 8.533333z" fill="#FFA232" p-id="11349"></path></svg>