<?xml version="1.0" standalone="no"?><!DOCTYPE svg PUBLIC "-//W3C//DTD SVG 1.1//EN" "http://www.w3.org/Graphics/SVG/1.1/DTD/svg11.dtd"><svg t="1715594023014" class="icon" viewBox="0 0 1024 1024" version="1.1" xmlns="http://www.w3.org/2000/svg" p-id="7958" xmlns:xlink="http://www.w3.org/1999/xlink" width="200" height="200"><path d="M511.999699 0.000698a442.181517 442.181517 0 0 0-116.363558 869.003044A289.745257 289.745257 0 0 1 511.999699 1024a289.745257 289.745257 0 0 1 116.363557-154.996258A442.181517 442.181517 0 0 0 511.999699 0.000698z m-38.632701 284.392534l3.490906-3.490907a12.10181 12.10181 0 0 1 6.516359-3.025453l53.061782-53.294509a11.869083 11.869083 0 0 1 16.523626 0l3.490906 3.490907a11.869083 11.869083 0 0 1 0 16.523625l-49.803602 49.803602 49.803602 49.570876a11.869083 11.869083 0 0 1 0 16.523625l-3.490906 3.490907a11.869083 11.869083 0 0 1-16.523626 0l-53.061782-53.29451a10.47272 10.47272 0 0 1-6.516359-3.025452l-3.490906-3.490907a11.636356 11.636356 0 0 1-3.025453-9.774539 12.10181 12.10181 0 0 1 3.025453-10.007265zM219.461716 512.000349l16.058171-43.985424a32.349069 32.349069 0 0 1 30.952706-15.825444H465.454276a32.349069 32.349069 0 0 1 30.952706 15.825444L511.999699 512.000349c4.654542 12.799991-10.47272 25.134528-30.952707 25.134528H250.414422c-20.479986 0.465454-35.607248-11.869083-30.952706-25.134528z m331.636138 123.345371h-29.09089a13.032718 13.032718 0 0 1 13.032719 13.032718V674.909329a13.032718 13.032718 0 1 1-26.065437 0v-26.530891a13.032718 13.032718 0 0 1 13.032718-13.032718H209.45445a13.032718 13.032718 0 0 1 13.032719 13.032718V674.909329a13.032718 13.032718 0 0 1-26.065437 0v-26.530891A13.032718 13.032718 0 0 1 209.45445 635.34572H179.898107c-13.498173 0-21.643622-12.567264-14.196354-22.109076l39.563609-49.803603a18.152715 18.152715 0 0 1 14.196354-6.283632H511.999699a18.152715 18.152715 0 0 1 14.196353 6.283632l39.56361 49.803603c6.981813 9.541812-1.163636 22.109076-14.661808 22.109076z m93.090845 131.956273a23.272711 23.272711 0 0 1-18.850896-19.31635l-23.272711-208.05804a23.272711 23.272711 0 0 1 23.272711-25.134529h19.549078z m41.890881-19.31635a23.272711 23.272711 0 0 1-18.618169 19.31635V514.793074h19.31635a23.272711 23.272711 0 0 1 23.272712 25.134529z m50.036329-430.079707l-20.94544 166.632614a29.090889 29.090889 0 0 1-28.858162 25.599982h-61.439958a29.090889 29.090889 0 0 1-28.858162-25.599982l-20.712713-166.632614A29.090889 29.090889 0 0 1 605.090544 285.091413h102.865385a29.090889 29.090889 0 0 1 27.927253 32.814523z m-18.618169-119.621737a62.603594 62.603594 0 1 1-124.97446 0 61.672685 61.672685 0 0 1 3.723634-20.712713 19.083623 19.083623 0 0 1-10.007266-2.792725L581.817833 172.218763h145.9199l-3.956361 2.559998a19.083623 19.083623 0 0 1-10.007266 2.792725 61.672685 61.672685 0 0 1 3.490907 20.712713zM737.046818 162.909678H572.508748a18.850896 18.850896 0 0 1 9.076358-23.272711l40.26179-19.549078a20.94544 20.94544 0 0 1 8.378176-3.723634h49.105422a20.94544 20.94544 0 0 1 8.378176 1.861817l40.26179 19.549078A18.850896 18.850896 0 0 1 737.046818 162.909678zM767.999524 526.42943a11.636356 11.636356 0 0 1-11.636356 11.636356h-4.887269a11.636356 11.636356 0 0 1-11.636356-11.636356V325.818658a11.636356 11.636356 0 0 1 11.636356-11.636356h4.887269a11.636356 11.636356 0 0 1 11.636356 11.636356z" fill="#1729FF" p-id="7959"></path><path d="M288.581669 588.102115l-77.730856-9.541811A13.358536 13.358536 0 1 0 207.592633 605.091195l77.730856 9.541811a13.032718 13.032718 0 0 0 14.661809-11.170901 13.265446 13.265446 0 0 0-11.403629-15.35999zM602.530546 321.862297a9.309085 9.309085 0 1 0-13.032719 13.032718l109.381744 109.381744a9.309085 9.309085 0 1 0 13.032718-13.032718zM520.145148 578.560304l-77.963584 9.541811a13.032718 13.032718 0 0 0-11.170901 14.661809 12.799991 12.799991 0 0 0 14.429081 11.170901l77.963583-8.84363a13.032718 13.032718 0 1 0-3.258179-25.83271zM274.152588 505.018536h182.690784a13.032718 13.032718 0 0 0 0-26.065437H274.152588a13.032718 13.032718 0 0 0 0 26.065437z" fill="#1729FF" p-id="7960"></path></svg>